<?xml version="1.0" encoding="utf-8"?>
<!-- Generator: Adobe Illustrator 19.1.0, SVG Export Plug-In . SVG Version: 6.00 Build 0)  -->
<svg version="1.1" id="Layer_1" xmlns="http://www.w3.org/2000/svg" xmlns:xlink="http://www.w3.org/1999/xlink" x="0px" y="0px"
	 width="1000px" height="1000px" viewBox="0 0 1000 1000" style="enable-background:new 0 0 1000 1000;" xml:space="preserve">
<path d="M409.4,37.2l2-0.2c1,3.1,2.1,6.1,3.5,9c2.2-1.7,4.7-3.3,7.5-3.5c1.4,1.5,1.9,3.4,1.5,5.5c-8.6,7.5-0.8,17.4-8,25.5
	c-2.1,2.4-4.8,4.3-7,6.5l0,2c0.5,0.6,0.9,0.9,1.4,1.5c2.3,0.2,5.4,0.3,7.6-0.7c1.8-1,6.6,7.9,8.2,9.1c3.8,2.7,8.4,3.4,12.9,4.1
	c10,1.6,21.2,0.4,28.4,8.6c3.6,4.1,4.5,7.5,9.9,10.1c5.2,2.4,11,2.7,16.2,5.3c7.4,3.7,12.3,7.7,20.9,7.6c8.6-8,4.7-20.1,14.8-27.7
	c12.6-9.7,20.1-2.5,32.4,2.2c7.8,3,16.7,5.1,24.7,7.5c10.4,3.1,22,3.1,32.7,4.9c10.1,1.7,15.3-3.7,24.4-5.3c1.2,3.7,2.8,7.3,3.8,11
	c0.1,0.6,0.7,1,1.2,1l0,0c0.6,0,1.1-0.4,1.2-0.9c1.2-4.3,4.3-9.2,7.3-12.1l1.3,2.2c3.9,7.5,24.6-1.3,31,7.6
	c7.3,10.3,3.9,24.6,3.2,36.2c-2.5-0.4-3.5-1.7-5.4-2.9c-0.7-0.4-1-1.1-1.6-1.6c-1.3-1-3.1-1.5-4.2-2.7c-2.3-2.6-2.5-9.3-5.8-10.6
	l-2-0.7c-2.1-1.7-3.9-4-5.3-6.2c-0.5,0.1-0.6,0.1-1.1,0.2c-0.9,4.5,1.5,5.2,3.3,8c3.5,5.6,8.1,10.4,11.4,16.2
	c3.7,6.7,4.8,13,10,18.5c5.5,5.8,10.4,12,14.9,18.7c4.9,7.4,6.5,15.9,11.1,23.2c5.3,8.3,14,11.8,17.7,21.6c3.4,9.2,1,20.1,5.3,28.9
	c4.2,8.1,14.8,11.4,19.8,19.2c6.8,10.8,7.8,20.1,18.3,28.7c7.4,6,15.8,10.7,23.2,16.7c5.9,4.7,21.6,12.8,21.3,21.4
	c-0.3,4.8-3.8,7.8-4.7,12.1c-0.2,1.3,0.6,2.5,1.9,2.8c9.3,2,15.9,8.2,26.2,7.1c4.7-0.5,9-1.9,13.7-2.9c5-1.1,7.2-4.4,11.4-5.8
	c5-1.7,9-0.9,13.4-3.3c5.3-2.8,9.1-2.8,15.3-4.4c6.8-1.8,12.5-9,19.9-5.6c0.1,0.2,0.3,0.4,0.5,0.5c0.1,0.7,0.6,6.8,1.1,8.5
	c0.2,0.7,0.3,1.5,0.3,2.2l0,0.9c0,24.4-14.8,47.9-25.3,69.2c-10.7,21.7-25.1,41.4-42.9,57.8c-14.2,13.1-27.6,25-40,40.1
	c-5.4,6.6-10.7,13.8-17,19.7c-6.3,5.9-6.1,10.5-9.9,18.2c-4.6,9.5-11.2,7.1-12.3,18.4c-1,11.1,3.1,22.4,3.8,33.5
	c0.7,10.2,2.2,18.7,7.5,27.6c4.9,8.3,5.5,14.4,5.5,24.1c0,15.8,5.1,43.4-6.7,56c-11.1,11.9-28,17.5-41.5,26
	c-6.1,3.9-11.2,8.7-17,12.9c-2.5,1.8-9.4,9.2-11.2,9c-6.9-0.5-0.4,19.5,0.4,22.6c2.5,9.3,3.4,19.6,1.4,29
	c-2.7,11.5-20.3,15.5-29.2,20.1c-10.8,5.6-5.8,14.3-8.7,25.1c-2.7,10.1-8.9,17.8-16.5,24.4c-11.7,10.1-18.9,24.9-30.4,35.4
	c-16.8,15.4-37.2,25.4-59.9,24c-17.2-1-33.7,6.4-50.4,7.1c-0.9,0-1.8-0.4-2.4-1.1c-0.1-0.1-0.2-0.2-0.3-0.3l-3-1
	c-5.2-5.1-11.9-10.4-14.8-17.3c-1.1-2.8-0.8-4.4,1-4.7c2.5-0.5,4.6-2.8,5.8-5c-5.3-7.8-11-16.2-14.3-25.1
	c-4-10.6-9.3-18.2-15.8-27.6c-9-13-13.4-25.3-15.7-40.9c-2-13.8-3-25.2-9.7-37.8c-13.2-24.6-31.4-46.4-28.7-76.1
	c0.7-7.6,3.3-15.8,5.7-23c3.9-11.3,16.5-20.2,17.4-32.1c0.5-7.2-2.9-12.8-4.5-19.5c-1.5-6.2-1.2-12.7-2.4-19
	c-2.5-13.7-9.4-26.5-14.9-39.2c-4.9-11.2-11.6-19.4-19.6-28.6c-7-8-20.2-20.5-21.6-31.7c-0.6-4.7,3.8-10.6,4.8-15.5
	c1.2-5.4,0.2-10.2,0.9-15.3c1.2-9,3.9-16.7,4.3-26c0.1-3.2-0.2-6,0.5-9.2c-0.2-0.1-0.4-0.3-0.5-0.5c-1.6-0.1-2.8,0.3-4.5,1
	c-4.8,1.9-9.3-10.1-12.5-8.5c-6.6,3.3-23,5.1-29.8,3c-8.4-2.6-10.8-13.5-16-20.2c-6.1-8.3-33.7-5.2-42.1-3.1
	c-14,3.6-27.9,15-42.1,16.8c-6.5,0.8-13.3-2.3-19.9-3c-10-1-20.5-0.9-30.3,1.1c-19.1,3.8-33,7.1-49.2-7
	c-12.4-10.8-26.1-21.9-37.3-34c-6.7-7.3-6.8-11.9-9.7-20.9c-2.2-6.8-6.8-9.6-11.5-14.7c-3.5-3.8-5.7-8.3-9-12.3
	c-4.8-5.8-11.9-11-14.7-18.1c-3-7.5,1-10.1,1.1-16.5c0.1-5.3-2.8-9.5-5.5-14c0.1-1,0.3-2,0.5-3c13.1-16,15.3-39.1,17.3-59
	c0.8-7.7,0.2-12.6-0.9-20c-1.3-8.5,0.1-14.2,4.9-20.8c5.2-7.1,8.1-16.5,14.5-22.6c7.1-6.9,11.5-12.4,17.1-20.9
	c4.2-6.4,10-8.7,14.7-14.4c3.4-4.2,5.4-9.2,10.2-12.1c4.4-2.7,9.7-2.2,14.4-3.7c7.8-2.6,15.3-8.5,20.6-14.8
	c6.4-7.6,6.7-16.9,11-25.5c9.1-18.5,28.2-21.9,41.8-36.3c4.4-4.7,8-10.4,12.5-14.9c9.8,10.1,17.9,10.9,32.1,12.3
	c16.1,1.6,29.6-12.9,45.5-15.7C324.5,43.4,409.4,43.9,409.4,37.2z M906.6,685.4c-1.8-3.2-4.6-7.6-7.8-6.5c-1.2,0.4-2.7,8.6-3.2,9.2
	c-1.7,2.4-3.8,2.9-5.9,4.7c-4.6,3.9-5.1,5.3-7.2,11c-2.6,6.8-5.5,9-10.1,13.7c-4,4-5.6,7.7-11.3,9.3c-4,1.1-8.9,0.4-13,1.3
	c-25.9,6-13.9,32.9-17.7,51.4c-2.8,13.8-15,22.5-16.1,37.6c-0.8,10.1,0.1,28.7,11,33.8c12.5,5.6,30.3-2.3,36.4-13.7
	c7.6-14.3,12.8-30.3,19.1-45.2c4.8-11.2,11.7-22.6,15.5-34.1c3.6-11.3,5.7-24.9,7-36.8c0.7-0.1,1.3-0.3,2-0.5
	c0.1-0.2,0.3-0.4,0.5-0.5l1.3,3.2c1.2,3.4,5.1,1.5,7.2-0.2l-0.2-2.5C912.8,709.4,912.2,695.3,906.6,685.4z"/>
</svg>
